<?xml version="1.0" encoding="UTF-8" standalone="no"?>
<!DOCTYPE svg PUBLIC "-//W3C//DTD SVG 1.1//EN"
 "http://www.w3.org/Graphics/SVG/1.1/DTD/svg11.dtd">
<!-- Generated by graphviz version 2.36.0 (20140111.2315)
 -->
<!-- Title: controllers_diagram Pages: 1 -->
<svg width="553pt" height="522pt"
 viewBox="0.00 0.00 553.00 522.00" xmlns="http://www.w3.org/2000/svg" xmlns:xlink="http://www.w3.org/1999/xlink">
<g id="graph0" class="graph" transform="scale(1 1) rotate(0) translate(4 518)">
<title>controllers_diagram</title>
<polygon fill="none" stroke="none" points="-4,4 -4,-518 549,-518 549,4 -4,4"/>
<!-- _diagram_info -->
<g id="node1" class="node"><title>_diagram_info</title>
<text text-anchor="start" x="308" y="-183.6" font-family="Times,serif" font-size="13.00">Controllers diagram</text>
<text text-anchor="start" x="308" y="-169.6" font-family="Times,serif" font-size="13.00">Date: Sep 28 2015 &#45; 00:09</text>
<text text-anchor="start" x="308" y="-155.6" font-family="Times,serif" font-size="13.00">Migration version: 20150928054734</text>
<text text-anchor="start" x="308" y="-141.6" font-family="Times,serif" font-size="13.00">Generated by RailRoady 1.3.1</text>
<text text-anchor="start" x="308" y="-127.6" font-family="Times,serif" font-size="13.00">http://railroady.prestonlee.com</text>
</g>
<!-- ApplicationController -->
<g id="node2" class="node"><title>ApplicationController</title>
<path fill="none" stroke="black" d="M312,-0.5C312,-0.5 424,-0.5 424,-0.5 430,-0.5 436,-6.5 436,-12.5 436,-12.5 436,-82.5 436,-82.5 436,-88.5 430,-94.5 424,-94.5 424,-94.5 312,-94.5 312,-94.5 306,-94.5 300,-88.5 300,-82.5 300,-82.5 300,-12.5 300,-12.5 300,-6.5 306,-0.5 312,-0.5"/>
<text text-anchor="middle" x="368" y="-79.3" font-family="Times,serif" font-size="14.00">ApplicationController</text>
<polyline fill="none" stroke="black" points="300,-71.5 436,-71.5 "/>
<polyline fill="none" stroke="black" points="300,-47.5 436,-47.5 "/>
<polyline fill="none" stroke="black" points="300,-23.5 436,-23.5 "/>
<text text-anchor="start" x="308" y="-8.3" font-family="Times,serif" font-size="14.00">_layout</text>
</g>
<!-- WelcomeController -->
<g id="node3" class="node"><title>WelcomeController</title>
<path fill="none" stroke="black" d="M432,-420.5C432,-420.5 533,-420.5 533,-420.5 539,-420.5 545,-426.5 545,-432.5 545,-432.5 545,-501.5 545,-501.5 545,-507.5 539,-513.5 533,-513.5 533,-513.5 432,-513.5 432,-513.5 426,-513.5 420,-507.5 420,-501.5 420,-501.5 420,-432.5 420,-432.5 420,-426.5 426,-420.5 432,-420.5"/>
<text text-anchor="middle" x="482.5" y="-498.3" font-family="Times,serif" font-size="14.00">WelcomeController</text>
<polyline fill="none" stroke="black" points="420,-490.5 545,-490.5 "/>
<text text-anchor="start" x="428" y="-475.3" font-family="Times,serif" font-size="14.00">index</text>
<polyline fill="none" stroke="black" points="420,-467.5 545,-467.5 "/>
<polyline fill="none" stroke="black" points="420,-443.5 545,-443.5 "/>
<text text-anchor="start" x="428" y="-428.3" font-family="Times,serif" font-size="14.00">_layout</text>
</g>
<!-- RecipesController -->
<g id="node4" class="node"><title>RecipesController</title>
<path fill="none" stroke="black" d="M312,-225.5C312,-225.5 403,-225.5 403,-225.5 409,-225.5 415,-231.5 415,-237.5 415,-237.5 415,-381.5 415,-381.5 415,-387.5 409,-393.5 403,-393.5 403,-393.5 312,-393.5 312,-393.5 306,-393.5 300,-387.5 300,-381.5 300,-381.5 300,-237.5 300,-237.5 300,-231.5 306,-225.5 312,-225.5"/>
<text text-anchor="middle" x="357.5" y="-378.3" font-family="Times,serif" font-size="14.00">RecipesController</text>
<polyline fill="none" stroke="black" points="300,-370.5 415,-370.5 "/>
<text text-anchor="start" x="308" y="-355.3" font-family="Times,serif" font-size="14.00">create</text>
<text text-anchor="start" x="308" y="-340.3" font-family="Times,serif" font-size="14.00">index</text>
<text text-anchor="start" x="308" y="-325.3" font-family="Times,serif" font-size="14.00">new</text>
<text text-anchor="start" x="308" y="-310.3" font-family="Times,serif" font-size="14.00">show</text>
<text text-anchor="start" x="308" y="-295.3" font-family="Times,serif" font-size="14.00">update</text>
<polyline fill="none" stroke="black" points="300,-287.5 415,-287.5 "/>
<polyline fill="none" stroke="black" points="300,-263.5 415,-263.5 "/>
<text text-anchor="start" x="308" y="-248.3" font-family="Times,serif" font-size="14.00">_layout</text>
<text text-anchor="start" x="308" y="-233.3" font-family="Times,serif" font-size="14.00">recipe_params</text>
</g>
<!-- ArticlesController -->
<g id="node5" class="node"><title>ArticlesController</title>
<path fill="none" stroke="black" d="M162,-105.5C162,-105.5 253,-105.5 253,-105.5 259,-105.5 265,-111.5 265,-117.5 265,-117.5 265,-291.5 265,-291.5 265,-297.5 259,-303.5 253,-303.5 253,-303.5 162,-303.5 162,-303.5 156,-303.5 150,-297.5 150,-291.5 150,-291.5 150,-117.5 150,-117.5 150,-111.5 156,-105.5 162,-105.5"/>
<text text-anchor="middle" x="207.5" y="-288.3" font-family="Times,serif" font-size="14.00">ArticlesController</text>
<polyline fill="none" stroke="black" points="150,-280.5 265,-280.5 "/>
<text text-anchor="start" x="158" y="-265.3" font-family="Times,serif" font-size="14.00">create</text>
<text text-anchor="start" x="158" y="-250.3" font-family="Times,serif" font-size="14.00">destroy</text>
<text text-anchor="start" x="158" y="-235.3" font-family="Times,serif" font-size="14.00">edit</text>
<text text-anchor="start" x="158" y="-220.3" font-family="Times,serif" font-size="14.00">index</text>
<text text-anchor="start" x="158" y="-205.3" font-family="Times,serif" font-size="14.00">new</text>
<text text-anchor="start" x="158" y="-190.3" font-family="Times,serif" font-size="14.00">show</text>
<text text-anchor="start" x="158" y="-175.3" font-family="Times,serif" font-size="14.00">update</text>
<polyline fill="none" stroke="black" points="150,-167.5 265,-167.5 "/>
<polyline fill="none" stroke="black" points="150,-143.5 265,-143.5 "/>
<text text-anchor="start" x="158" y="-128.3" font-family="Times,serif" font-size="14.00">_layout</text>
<text text-anchor="start" x="158" y="-113.3" font-family="Times,serif" font-size="14.00">article_params</text>
</g>
<!-- CommentsController -->
<g id="node6" class="node"><title>CommentsController</title>
<path fill="none" stroke="black" d="M147,-330.5C147,-330.5 255,-330.5 255,-330.5 261,-330.5 267,-336.5 267,-342.5 267,-342.5 267,-441.5 267,-441.5 267,-447.5 261,-453.5 255,-453.5 255,-453.5 147,-453.5 147,-453.5 141,-453.5 135,-447.5 135,-441.5 135,-441.5 135,-342.5 135,-342.5 135,-336.5 141,-330.5 147,-330.5"/>
<text text-anchor="middle" x="201" y="-438.3" font-family="Times,serif" font-size="14.00">CommentsController</text>
<polyline fill="none" stroke="black" points="135,-430.5 267,-430.5 "/>
<text text-anchor="start" x="143" y="-415.3" font-family="Times,serif" font-size="14.00">create</text>
<text text-anchor="start" x="143" y="-400.3" font-family="Times,serif" font-size="14.00">destroy</text>
<polyline fill="none" stroke="black" points="135,-392.5 267,-392.5 "/>
<polyline fill="none" stroke="black" points="135,-368.5 267,-368.5 "/>
<text text-anchor="start" x="143" y="-353.3" font-family="Times,serif" font-size="14.00">_layout</text>
<text text-anchor="start" x="143" y="-338.3" font-family="Times,serif" font-size="14.00">comment_params</text>
</g>
<!-- LandingController -->
<g id="node7" class="node"><title>LandingController</title>
<path fill="none" stroke="black" d="M12,-210.5C12,-210.5 105,-210.5 105,-210.5 111,-210.5 117,-216.5 117,-222.5 117,-222.5 117,-291.5 117,-291.5 117,-297.5 111,-303.5 105,-303.5 105,-303.5 12,-303.5 12,-303.5 6,-303.5 0,-297.5 0,-291.5 0,-291.5 0,-222.5 0,-222.5 0,-216.5 6,-210.5 12,-210.5"/>
<text text-anchor="middle" x="58.5" y="-288.3" font-family="Times,serif" font-size="14.00">LandingController</text>
<polyline fill="none" stroke="black" points="0,-280.5 117,-280.5 "/>
<text text-anchor="start" x="8" y="-265.3" font-family="Times,serif" font-size="14.00">index</text>
<polyline fill="none" stroke="black" points="0,-257.5 117,-257.5 "/>
<polyline fill="none" stroke="black" points="0,-233.5 117,-233.5 "/>
<text text-anchor="start" x="8" y="-218.3" font-family="Times,serif" font-size="14.00">_layout</text>
</g>
</g>
</svg>
