<?xml version="1.0" encoding="UTF-8" standalone="no"?>
<!DOCTYPE svg PUBLIC "-//W3C//DTD SVG 1.1//EN"
 "http://www.w3.org/Graphics/SVG/1.1/DTD/svg11.dtd">
<!-- Generated by graphviz version 2.36.0 (20140111.2315)
 -->
<!-- Title: models_diagram Pages: 1 -->
<svg width="430pt" height="230pt"
 viewBox="0.00 0.00 430.00 230.00" xmlns="http://www.w3.org/2000/svg" xmlns:xlink="http://www.w3.org/1999/xlink">
<g id="graph0" class="graph" transform="scale(1 1) rotate(0) translate(4 226)">
<title>models_diagram</title>
<polygon fill="none" stroke="none" points="-4,4 -4,-226 426,-226 426,4 -4,4"/>
<!-- _diagram_info -->
<g id="node1" class="node"><title>_diagram_info</title>
<text text-anchor="start" x="8" y="-207.6" font-family="Times,serif" font-size="13.00">Models diagram</text>
<text text-anchor="start" x="8" y="-193.6" font-family="Times,serif" font-size="13.00">Date: Sep 28 2015 &#45; 00:09</text>
<text text-anchor="start" x="8" y="-179.6" font-family="Times,serif" font-size="13.00">Migration version: 20150928054734</text>
<text text-anchor="start" x="8" y="-165.6" font-family="Times,serif" font-size="13.00">Generated by RailRoady 1.3.1</text>
<text text-anchor="start" x="8" y="-151.6" font-family="Times,serif" font-size="13.00">http://railroady.prestonlee.com</text>
</g>
<!-- User -->
<g id="node2" class="node"><title>User</title>
<ellipse fill="none" stroke="black" cx="259" cy="-183" rx="26.949" ry="18"/>
<text text-anchor="middle" x="259" y="-179.3" font-family="Times,serif" font-size="14.00">User</text>
</g>
<!-- Quantity -->
<g id="node3" class="node"><title>Quantity</title>
<ellipse fill="none" stroke="black" cx="338" cy="-18" rx="41.394" ry="18"/>
<text text-anchor="middle" x="338" y="-14.3" font-family="Times,serif" font-size="14.00">Quantity</text>
</g>
<!-- Recipe -->
<g id="node4" class="node"><title>Recipe</title>
<ellipse fill="none" stroke="black" cx="339" cy="-183" rx="35.1455" ry="18"/>
<text text-anchor="middle" x="339" y="-179.3" font-family="Times,serif" font-size="14.00">Recipe</text>
</g>
<!-- Recipe&#45;&gt;Quantity -->
<g id="edge1" class="edge"><title>Recipe&#45;&gt;Quantity</title>
<path fill="none" stroke="#dc7a29" d="M330.049,-157.585C323.008,-135.306 315.134,-101.461 320,-72 321.464,-63.1389 324.217,-53.768 327.137,-45.4104"/>
<ellipse fill="none" stroke="#dc7a29" cx="331.324" cy="-161.443" rx="4.00001" ry="4.00001"/>
<polygon fill="#dc7a29" stroke="#dc7a29" points="327.218,-45.1925 334.924,-37.3909 328.963,-40.5066 330.707,-35.8208 330.707,-35.8208 330.707,-35.8208 328.963,-40.5066 326.49,-34.2508 327.218,-45.1925 327.218,-45.1925"/>
</g>
<!-- Ingredient -->
<g id="node5" class="node"><title>Ingredient</title>
<ellipse fill="none" stroke="black" cx="376" cy="-90" rx="46.1964" ry="18"/>
<text text-anchor="middle" x="376" y="-86.3" font-family="Times,serif" font-size="14.00">Ingredient</text>
</g>
<!-- Recipe&#45;&gt;Ingredient -->
<g id="edge2" class="edge"><title>Recipe&#45;&gt;Ingredient</title>
<path fill="none" stroke="#0366e7" d="M349.654,-155.797C354.551,-143.752 360.349,-129.493 365.257,-117.422"/>
<polygon fill="#0366e7" stroke="#0366e7" points="349.553,-156.046 341.618,-163.614 347.67,-160.677 345.786,-165.309 345.786,-165.309 345.786,-165.309 347.67,-160.677 349.955,-167.004 349.553,-156.046 349.553,-156.046"/>
<polygon fill="#0366e7" stroke="#0366e7" points="365.365,-117.157 373.3,-109.588 367.248,-112.525 369.131,-107.893 369.131,-107.893 369.131,-107.893 367.248,-112.525 364.963,-106.198 365.365,-117.157 365.365,-117.157"/>
</g>
<!-- Ingredient&#45;&gt;Quantity -->
<g id="edge3" class="edge"><title>Ingredient&#45;&gt;Quantity</title>
<path fill="none" stroke="#0f06e6" d="M362.97,-64.9976C359.463,-58.5373 355.654,-51.5206 352.092,-44.959"/>
<ellipse fill="none" stroke="#0f06e6" cx="364.893" cy="-68.5395" rx="4.00002" ry="4.00002"/>
<polygon fill="#0f06e6" stroke="#0f06e6" points="351.885,-44.5775 351.069,-33.6421 349.5,-40.1833 347.114,-35.789 347.114,-35.789 347.114,-35.789 349.5,-40.1833 343.159,-37.9359 351.885,-44.5775 351.885,-44.5775"/>
</g>
</g>
</svg>
