<?xml version="1.0" encoding="UTF-8" standalone="no"?>
<!DOCTYPE svg PUBLIC "-//W3C//DTD SVG 1.1//EN"
 "http://www.w3.org/Graphics/SVG/1.1/DTD/svg11.dtd">
<!-- Generated by graphviz version 2.36.0 (20140111.2315)
 -->
<!-- Title: models_diagram Pages: 1 -->
<svg width="636pt" height="522pt"
 viewBox="0.00 0.00 636.00 522.00" xmlns="http://www.w3.org/2000/svg" xmlns:xlink="http://www.w3.org/1999/xlink">
<g id="graph0" class="graph" transform="scale(1 1) rotate(0) translate(4 518)">
<title>models_diagram</title>
<polygon fill="none" stroke="none" points="-4,4 -4,-518 632,-518 632,4 -4,4"/>
<!-- _diagram_info -->
<g id="node1" class="node"><title>_diagram_info</title>
<text text-anchor="start" x="8" y="-424.6" font-family="Times,serif" font-size="13.00">Models diagram</text>
<text text-anchor="start" x="8" y="-410.6" font-family="Times,serif" font-size="13.00">Date: Sep 28 2015 &#45; 00:09</text>
<text text-anchor="start" x="8" y="-396.6" font-family="Times,serif" font-size="13.00">Migration version: 20150928054734</text>
<text text-anchor="start" x="8" y="-382.6" font-family="Times,serif" font-size="13.00">Generated by RailRoady 1.3.1</text>
<text text-anchor="start" x="8" y="-368.6" font-family="Times,serif" font-size="13.00">http://railroady.prestonlee.com</text>
</g>
<!-- User -->
<g id="node2" class="node"><title>User</title>
<path fill="none" stroke="black" d="M244,-287C244,-287 420,-287 420,-287 426,-287 432,-293 432,-299 432,-299 432,-501 432,-501 432,-507 426,-513 420,-513 420,-513 244,-513 244,-513 238,-513 232,-507 232,-501 232,-501 232,-299 232,-299 232,-293 238,-287 244,-287"/>
<text text-anchor="middle" x="332" y="-497.8" font-family="Times,serif" font-size="14.00">User</text>
<polyline fill="none" stroke="black" points="232,-490 432,-490 "/>
<text text-anchor="start" x="240" y="-474.8" font-family="Times,serif" font-size="14.00">id :integer</text>
<text text-anchor="start" x="240" y="-459.8" font-family="Times,serif" font-size="14.00">email :string</text>
<text text-anchor="start" x="240" y="-444.8" font-family="Times,serif" font-size="14.00">encrypted_password :string</text>
<text text-anchor="start" x="240" y="-429.8" font-family="Times,serif" font-size="14.00">reset_password_token :string</text>
<text text-anchor="start" x="240" y="-414.8" font-family="Times,serif" font-size="14.00">reset_password_sent_at :datetime</text>
<text text-anchor="start" x="240" y="-399.8" font-family="Times,serif" font-size="14.00">remember_created_at :datetime</text>
<text text-anchor="start" x="240" y="-384.8" font-family="Times,serif" font-size="14.00">sign_in_count :integer</text>
<text text-anchor="start" x="240" y="-369.8" font-family="Times,serif" font-size="14.00">current_sign_in_at :datetime</text>
<text text-anchor="start" x="240" y="-354.8" font-family="Times,serif" font-size="14.00">last_sign_in_at :datetime</text>
<text text-anchor="start" x="240" y="-339.8" font-family="Times,serif" font-size="14.00">current_sign_in_ip :string</text>
<text text-anchor="start" x="240" y="-324.8" font-family="Times,serif" font-size="14.00">last_sign_in_ip :string</text>
<text text-anchor="start" x="240" y="-309.8" font-family="Times,serif" font-size="14.00">created_at :datetime</text>
<text text-anchor="start" x="240" y="-294.8" font-family="Times,serif" font-size="14.00">updated_at :datetime</text>
</g>
<!-- Quantity -->
<g id="node3" class="node"><title>Quantity</title>
<path fill="none" stroke="black" d="M461,-0.5C461,-0.5 571,-0.5 571,-0.5 577,-0.5 583,-6.5 583,-12.5 583,-12.5 583,-109.5 583,-109.5 583,-115.5 577,-121.5 571,-121.5 571,-121.5 461,-121.5 461,-121.5 455,-121.5 449,-115.5 449,-109.5 449,-109.5 449,-12.5 449,-12.5 449,-6.5 455,-0.5 461,-0.5"/>
<text text-anchor="middle" x="516" y="-106.3" font-family="Times,serif" font-size="14.00">Quantity</text>
<polyline fill="none" stroke="black" points="449,-98.5 583,-98.5 "/>
<text text-anchor="start" x="457" y="-83.3" font-family="Times,serif" font-size="14.00">id :integer</text>
<text text-anchor="start" x="457" y="-68.3" font-family="Times,serif" font-size="14.00">amount :decimal</text>
<text text-anchor="start" x="457" y="-53.3" font-family="Times,serif" font-size="14.00">recipe_id :integer</text>
<text text-anchor="start" x="457" y="-38.3" font-family="Times,serif" font-size="14.00">ingredient_id :integer</text>
<text text-anchor="start" x="457" y="-23.3" font-family="Times,serif" font-size="14.00">created_at :datetime</text>
<text text-anchor="start" x="457" y="-8.3" font-family="Times,serif" font-size="14.00">updated_at :datetime</text>
</g>
<!-- Recipe -->
<g id="node4" class="node"><title>Recipe</title>
<path fill="none" stroke="black" d="M462.5,-339.5C462.5,-339.5 569.5,-339.5 569.5,-339.5 575.5,-339.5 581.5,-345.5 581.5,-351.5 581.5,-351.5 581.5,-448.5 581.5,-448.5 581.5,-454.5 575.5,-460.5 569.5,-460.5 569.5,-460.5 462.5,-460.5 462.5,-460.5 456.5,-460.5 450.5,-454.5 450.5,-448.5 450.5,-448.5 450.5,-351.5 450.5,-351.5 450.5,-345.5 456.5,-339.5 462.5,-339.5"/>
<text text-anchor="middle" x="516" y="-445.3" font-family="Times,serif" font-size="14.00">Recipe</text>
<polyline fill="none" stroke="black" points="450.5,-437.5 581.5,-437.5 "/>
<text text-anchor="start" x="458.5" y="-422.3" font-family="Times,serif" font-size="14.00">id :integer</text>
<text text-anchor="start" x="458.5" y="-407.3" font-family="Times,serif" font-size="14.00">title :string</text>
<text text-anchor="start" x="458.5" y="-392.3" font-family="Times,serif" font-size="14.00">description :text</text>
<text text-anchor="start" x="458.5" y="-377.3" font-family="Times,serif" font-size="14.00">instructions :text</text>
<text text-anchor="start" x="458.5" y="-362.3" font-family="Times,serif" font-size="14.00">created_at :datetime</text>
<text text-anchor="start" x="458.5" y="-347.3" font-family="Times,serif" font-size="14.00">updated_at :datetime</text>
</g>
<!-- Recipe&#45;&gt;Quantity -->
<g id="edge1" class="edge"><title>Recipe&#45;&gt;Quantity</title>
<path fill="none" stroke="#34eb58" d="M499.472,-331.564C489.8,-283.178 480.934,-216.471 489,-158 490.195,-149.339 491.969,-140.36 494.047,-131.525"/>
<ellipse fill="none" stroke="#34eb58" cx="500.289" cy="-335.552" rx="4.00001" ry="4.00001"/>
<polygon fill="#34eb58" stroke="#34eb58" points="494.093,-131.34 500.874,-122.723 495.3,-126.488 496.508,-121.636 496.508,-121.636 496.508,-121.636 495.3,-126.488 492.141,-120.55 494.093,-131.34 494.093,-131.34"/>
</g>
<!-- Ingredient -->
<g id="node5" class="node"><title>Ingredient</title>
<path fill="none" stroke="black" d="M509.5,-158.5C509.5,-158.5 616.5,-158.5 616.5,-158.5 622.5,-158.5 628.5,-164.5 628.5,-170.5 628.5,-170.5 628.5,-237.5 628.5,-237.5 628.5,-243.5 622.5,-249.5 616.5,-249.5 616.5,-249.5 509.5,-249.5 509.5,-249.5 503.5,-249.5 497.5,-243.5 497.5,-237.5 497.5,-237.5 497.5,-170.5 497.5,-170.5 497.5,-164.5 503.5,-158.5 509.5,-158.5"/>
<text text-anchor="middle" x="563" y="-234.3" font-family="Times,serif" font-size="14.00">Ingredient</text>
<polyline fill="none" stroke="black" points="497.5,-226.5 628.5,-226.5 "/>
<text text-anchor="start" x="505.5" y="-211.3" font-family="Times,serif" font-size="14.00">id :integer</text>
<text text-anchor="start" x="505.5" y="-196.3" font-family="Times,serif" font-size="14.00">name :string</text>
<text text-anchor="start" x="505.5" y="-181.3" font-family="Times,serif" font-size="14.00">created_at :datetime</text>
<text text-anchor="start" x="505.5" y="-166.3" font-family="Times,serif" font-size="14.00">updated_at :datetime</text>
</g>
<!-- Recipe&#45;&gt;Ingredient -->
<g id="edge2" class="edge"><title>Recipe&#45;&gt;Ingredient</title>
<path fill="none" stroke="#2b4d88" d="M532.85,-329.45C538.411,-306.494 544.514,-281.304 549.765,-259.628"/>
<polygon fill="#2b4d88" stroke="#2b4d88" points="532.776,-329.756 526.047,-338.416 531.598,-334.616 530.421,-339.475 530.421,-339.475 530.421,-339.475 531.598,-334.616 534.794,-340.535 532.776,-329.756 532.776,-329.756"/>
<polygon fill="#2b4d88" stroke="#2b4d88" points="549.836,-259.335 556.564,-250.676 551.014,-254.475 552.191,-249.616 552.191,-249.616 552.191,-249.616 551.014,-254.475 547.818,-248.556 549.836,-259.335 549.836,-259.335"/>
</g>
<!-- Ingredient&#45;&gt;Quantity -->
<g id="edge3" class="edge"><title>Ingredient&#45;&gt;Quantity</title>
<path fill="none" stroke="#f23f86" d="M545.522,-150.567C543.404,-144.212 541.216,-137.647 539.033,-131.098"/>
<ellipse fill="none" stroke="#f23f86" cx="546.864" cy="-154.592" rx="4.00001" ry="4.00001"/>
<polygon fill="#f23f86" stroke="#f23f86" points="539.009,-131.028 540.116,-120.118 537.428,-126.285 535.847,-121.541 535.847,-121.541 535.847,-121.541 537.428,-126.285 531.578,-122.964 539.009,-131.028 539.009,-131.028"/>
</g>
</g>
</svg>
